<?xml version="1.0" encoding="utf-8"?>
<!-- Generator: Adobe Illustrator 26.5.0, SVG Export Plug-In . SVG Version: 6.00 Build 0)  -->
<svg version="1.1" id="Layer_1" xmlns="http://www.w3.org/2000/svg" xmlns:xlink="http://www.w3.org/1999/xlink" x="0px" y="0px"
	 viewBox="0 0 595.28 841.89" style="enable-background:new 0 0 595.28 841.89;" xml:space="preserve">
<style type="text/css">
	.st0{fill:#A24499;}
	.st1{fill:#52459B;}
	.st2{fill:#A2459A;}
	.st3{fill:#54489D;}
	.st4{fill:#55499E;}
	.st5{fill:#554A9E;}
	.st6{fill:#564A9F;}
	.st7{fill:#53479D;}
	.st8{fill:#A54B9C;}
	.st9{fill:#50449A;}
	.st10{fill:#54499E;}
	.st11{fill:#57499E;}
	.st12{fill:#A44A9C;}
	.st13{fill:#100826;}
	.st14{fill:#584A9F;}
	.st15{fill:#53489D;}
	.st16{fill:#17141F;}
	.st17{fill:#171618;}
	.st18{fill:#594EA0;}
	.st19{fill:#222121;}
	.st20{fill:#51449B;}
	.st21{fill:#14111A;}
</style>
<path class="st0" d="M160.57,379.35c1.05,4.65,4.04,8.05,7.52,10.95c11.28,9.4,31.5,7.73,40.77-4.72c0.35-0.46,1-1.01,1.51-1
	c16.91,0.06,33.85-0.33,50.73,0.42c18.62,0.82,35.41,7.02,48.86,20.48c9.72,9.73,15.25,21.73,17.74,35.14
	c2.05,11.05,2.53,22.14,0.09,33.22c-1.77,8.07-5.17,15.36-10.28,21.85c-1.07,1.35-2.1,2.73-3.15,4.1c-0.22,0.3-0.44,0.61-0.66,0.91
	c0,0,0.01-0.02,0.01-0.02c-0.29,0.18-0.59,0.36-0.88,0.53c0,0,0.04-0.04,0.04-0.04c-0.16,0.16-0.32,0.32-0.48,0.48
	c0,0,0.03-0.03,0.03-0.03c-0.58,0.34-1.21,0.62-1.72,1.04c-11.9,9.76-25.83,14.29-40.93,14.67c-19.24,0.49-38.51,0.15-57.77,0.16
	c-0.79,0-1.58-0.09-2.32-0.13c-0.09-0.51-0.16-0.73-0.16-0.95c-0.01-34.18-0.02-68.36,0.03-102.54c0-0.75,0.59-1.64,1.15-2.23
	c1.56-1.63,3.27-3.12,4.88-4.7c0.3-0.29,0.39-0.78,0.68-1.38c-0.56,0.1-0.83,0.07-0.99,0.18c-0.43,0.3-0.78,0.74-1.24,0.98
	c-3.99,2.08-7.82,4.59-12.02,6.08c-6.55,2.33-13.46,2.74-20.44,2.42c-9.81-0.46-18.38-4-25.79-10.19
	c-17.29-14.44-21.9-39.61-14.19-59.36c0.87-2.22,1.76-4.43,2.64-6.65c0,0-0.01,0.03-0.01,0.03c0.16-0.17,0.32-0.35,0.48-0.52
	c1.02-1.24,2.07-2.45,3.06-3.72c9.97-12.91,23.37-18.24,39.35-17.56c10.77,0.46,20.46,3.92,28.55,11.32
	c7.01,6.42,10.95,14.4,12.41,23.69c0.22,1.41,0.27,2.84,0.44,4.26c0.63,5.56-0.48,10.49-5.08,14.18
	c-5.71,2.36-11.73,2.28-17.74,2.28c-14.54,0-29.09,0-43.63,0c-0.88,0-1.76,0-3.17,0c0.49,2.1,0.89,3.81,1.28,5.52
	C160.29,378.79,160.43,379.07,160.57,379.35z M217.66,403.81c-0.16,0.14-0.31,0.29-0.47,0.43c-0.14,0.17-0.29,0.35-0.43,0.52
	c0.09,0.05,0.19,0.1,0.28,0.16c0.07-0.21,0.13-0.42,0.19-0.63C217.37,404.13,217.52,403.97,217.66,403.81
	c0.06-0.02,0.14-0.02,0.19-0.06c0.03-0.02,0.02-0.1,0.03-0.15C217.81,403.67,217.73,403.74,217.66,403.81z M163.71,347.19
	c-0.16,0.13-0.31,0.26-0.47,0.39c-2.5,2.6-3.54,5.81-4.02,9.4c0.66,0.06,1.17,0.15,1.68,0.15c13.12,0.01,26.24,0.01,39.36,0
	c0.51,0,1.03-0.15,1.54-0.22c0.58,0.05,1.17,0.09,1.75,0.14c1.92,0,3.84,0,5.96,0c-0.78-5.27-2.71-9.71-6.13-13.35
	c-8.96-9.54-24.79-10.57-34.9-2.23c-1.89,1.56-3.21,3.81-4.79,5.74L163.71,347.19z M233.62,411.09c0.12,0.68,0.25,1.36,0.37,2.04
	c-0.13,0.79-0.38,1.59-0.38,2.38c-0.02,26.33-0.02,52.65-0.01,78.98c0,0.8,0.08,1.59,0.12,2.43c0.7,0.06,1.14,0.13,1.58,0.13
	c9.59,0,19.18,0.14,28.76-0.05c7.51-0.15,14.86-1.59,21.65-4.91c3.87-1.9,7.9-3.87,9.95-8.11c1.45-1.74,3.31-3.28,4.29-5.26
	c7.5-15.1,7.38-30.58,0.18-45.49c-7.85-16.28-22.3-24.04-39.6-26.57c-7.11-1.04-14.43-0.86-21.65-0.96
	C232.91,405.62,233.57,404.45,233.62,411.09z"/>
<path class="st1" d="M144.23,339.03c-0.88,2.21-1.78,4.42-2.64,6.65c-7.71,19.75-3.09,44.92,14.19,59.36
	c7.41,6.19,15.99,9.73,25.79,10.19c6.98,0.33,13.89-0.09,20.44-2.42c4.2-1.49,8.04-4,12.02-6.08c0.46-0.24,0.8-0.68,1.24-0.98
	c0.17-0.11,0.43-0.09,0.99-0.18c-0.28,0.6-0.38,1.09-0.68,1.38c-1.61,1.59-3.32,3.07-4.88,4.7c-0.56,0.59-1.15,1.48-1.15,2.23
	c-0.05,34.18-0.04,68.36-0.03,102.54c0,0.22,0.07,0.44,0.16,0.95c0.74,0.04,1.53,0.13,2.32,0.13c19.26-0.01,38.52,0.33,57.77-0.16
	c15.1-0.38,29.03-4.92,40.93-14.67c0.51-0.42,1.15-0.7,1.72-1.04c-0.09,0.42-0.03,0.99-0.29,1.22c-3.71,3.34-7.45,6.64-11.19,9.94
	c-0.41,0.23-0.82,0.45-1.22,0.68c0,0,0.03-0.04,0.03-0.04c-0.62,0.22-1.28,0.36-1.84,0.68c-10.48,5.85-21.87,8.5-33.72,8.7
	c-19.09,0.33-38.18,0.17-57.27,0.22c-0.43,0-0.86-0.08-1.48-0.15c0-1.01,0-1.9,0-2.79c0-34.08,0-68.16-0.02-102.24
	c0-0.75-0.3-1.51-0.45-2.26c-0.17,0.05-0.33,0.1-0.5,0.15c-3.75,1.76-7.42,3.69-11.69,3.99c-1.21,0.09-2.38,0.6-3.57,0.93
	c-4.06,0-8.14,0.22-12.18-0.04c-14.16-0.9-25.44-7.47-33.34-18.95c-11.7-17-12.88-35.28-4.66-54.19c0.29-0.66,0.41-1.4,0.61-2.1
	C141.17,343.27,142.7,341.15,144.23,339.03z"/>
<path class="st2" d="M477.25,428.7c0-2.33,0-4.66,0-7.46c1.3,0.69,2.33,1.19,3.31,1.76c19,10.97,37.98,21.96,57.02,32.87
	c1.48,0.85,1.74,1.8,1.93,3.35c0.49,3.87-0.38,6.83-4.21,8.44c-1.91,1.04-3.83,2.04-5.72,3.12c-13.82,7.93-27.63,15.88-41.44,23.81
	c-3.5,2.01-7,4-10.9,6.22c0-3.21,0-5.97,0-8.73c-0.47-2.65,0.96-3.88,3.16-5.1c12.55-6.96,25-14.1,37.47-21.19
	c0.57-0.32,1.04-0.81,1.55-1.23c2.15-1.11,4.3-2.23,6.87-3.55c-1.3-0.81-2.04-1.3-2.81-1.74c-14.09-7.96-28.15-15.99-42.32-23.81
	C478.28,433.86,476.56,432.11,477.25,428.7z"/>
<path class="st2" d="M71.34,362.21c5.44,3.18,10.86,6.4,16.33,9.53c9.27,5.31,18.6,10.53,27.84,15.9c0.78,0.45,1.49,1.68,1.54,2.58
	c0.19,3.22,0.07,6.46,0.07,9.86c-1.48-0.6-2.76-1.12-4.05-1.64c-0.86-0.59-1.7-1.24-2.6-1.76c-16.81-9.7-33.58-19.47-50.49-28.99
	c-3.3-1.86-5.44-3.75-4.64-7.75c-0.4-2.44,0.8-3.68,2.89-4.88c18.81-10.75,37.55-21.64,56.32-32.49c0.7-0.4,1.43-0.75,2.55-1.33
	c0,3.9,0.05,7.47-0.06,11.04c-0.01,0.49-0.72,1.02-1.21,1.42c-0.92,0.75-1.91,1.41-2.87,2.1c-0.62,0.25-1.27,0.43-1.84,0.76
	c-10.21,5.79-20.4,11.58-30.6,17.39c-3.83,2.18-7.64,4.4-11.88,6.83C69.83,361.41,70.59,361.81,71.34,362.21z"/>
<path class="st2" d="M452.87,418.63c0.56-1.38,1.04-2.8,1.73-4.11c0.31-0.6,1.04-1.36,1.6-1.38c3.61-0.12,7.23-0.06,11.15-0.06
	c-1.57,5.07-3.08,9.92-4.59,14.77c-8.61,27.7-17.25,55.39-25.81,83.1c-0.54,1.74-1.19,2.85-3.19,2.49c-3.27,0-6.54,0-10.08,0
	c0.25-1.06,0.35-1.64,0.52-2.2c2.9-9.33,5.79-18.67,8.71-28c5.77-18.44,11.58-36.87,17.33-55.32
	C451.22,424.86,452.01,421.73,452.87,418.63z"/>
<path class="st3" d="M55.34,359.94c-0.8,4,1.34,5.9,4.64,7.75c16.91,9.52,33.68,19.29,50.49,28.99c0.9,0.52,1.73,1.17,2.6,1.76
	c0,2.32,0,4.63,0,7.35c-4.51-2.58-8.66-4.96-12.81-7.34c-15.65-9.01-31.28-18.04-46.96-27c-1.5-0.86-2.32-1.79-2-3.54
	c0.07-0.37,0.07-0.77,0-1.13C50.59,363.27,51.98,361.02,55.34,359.94z"/>
<path class="st4" d="M256.19,379.24c-1.75,0-3.18,0-4.92,0c0-2.25,0-4.48,0-6.71c0-2.04-0.06-4.07,0.01-6.11
	c0.09-2.71-0.67-4.98-3.28-6.14c-2.6-1.16-5.15-0.5-7.17,1.23c-0.93,0.8-1.55,2.41-1.61,3.68c-0.19,4.58-0.07,9.18-0.07,13.94
	c-1.65,0-3.18,0-4.82,0c0-7.69,0-15.36,0-23.1c2.76-1.85,3,1.2,4.43,2.44c2.06-2.37,4.81-3.52,7.89-3.42
	c3.12,0.1,5.89,1.25,7.81,4.03c3.15-3.21,6.76-4.65,11.11-3.76c4.01,0.82,6.91,3.38,7.18,7.36c0.37,5.45,0.09,10.95,0.09,16.53
	c-1.59,0-3.07,0-4.79,0c0-4.34-0.15-8.63,0.03-12.89c0.27-6.41-5.58-7.7-9.47-5.6c-1.66,0.9-2.55,2.06-2.48,4.12
	C256.29,369.55,256.19,374.29,256.19,379.24z"/>
<path class="st5" d="M423.33,377.03c-7.05,4.82-14.91,1.56-16.19-6.95c-0.4-2.66-0.27-5.64,0.52-8.2
	c2.08-6.74,10.15-9.02,15.82-4.78c0.23,0.17,0.47,0.32,0.8,0.55c1.05-1.4,1.94-3.24,3.7-1.78c0,7.5,0.08,14.74-0.03,21.97
	c-0.07,4.72-2.27,8.25-6.78,9.96c-5.13,1.94-11.17,0.55-14.52-3.26c0.94-1.16,1.91-2.36,2.9-3.58c2.82,2.96,6.17,3.62,9.8,2.37
	c2.72-0.93,4.22-3.04,4.32-6c-0.02-0.19-0.04-0.37-0.06-0.56C423.52,376.85,423.43,376.94,423.33,377.03z M423.06,367.44
	c0-1.13-0.06-2.26,0.01-3.38c0.13-1.85-0.87-2.99-2.36-3.74c-2.66-1.33-6.08-0.43-7.89,1.98c-2.04,2.72-2.01,7.42,0.08,10.14
	c1.65,2.15,4.37,2.91,7.09,1.97c2.6-0.89,3.07-1.68,3.07-5.17C423.06,368.64,423.06,368.04,423.06,367.44z"/>
<path class="st6" d="M331.05,384.52c1.01-1.21,1.92-2.31,2.89-3.47c3.22,2.99,6.84,3.72,10.69,1.9c2.3-1.09,3.53-3.16,3.47-5.71
	c-1.79,0.64-3.48,1.52-5.27,1.83c-3.91,0.68-7.13-0.72-9.43-3.97c-3.13-4.44-2.93-12.37,0.34-16.38c3.29-4.05,9.37-4.93,13.66-1.99
	c0.42,0.29,0.84,0.6,1.38,0.99c0.99-1.58,1.95-3.22,3.83-1.76c0,6.52,0.06,12.91-0.04,19.31c-0.03,2.01-0.33,4.06-0.81,6.01
	c-0.72,2.94-2.66,4.97-5.43,6.22C341.25,389.77,334.74,388.57,331.05,384.52z M347.61,367.37c0-1.05-0.01-2.11,0-3.16
	c0.03-2.07-1-3.41-2.93-4.03c-2.55-0.82-4.9-0.51-6.86,1.47c-2.63,2.66-2.72,8.43-0.17,11.18c1.79,1.93,4.39,2.42,7.04,1.48
	c2.51-0.89,3.21-2.7,2.92-5.14C347.55,368.58,347.61,367.97,347.61,367.37z"/>
<path class="st7" d="M477.25,428.7c-0.69,3.41,1.03,5.17,3.92,6.76c14.17,7.82,28.22,15.85,42.32,23.81
	c0.77,0.44,1.51,0.93,2.81,1.74c-2.56,1.32-4.71,2.44-6.87,3.55c-14.98-8.46-29.96-16.91-44.92-25.41
	c-0.55-0.31-1.21-1.04-1.22-1.59c-0.11-3.51-0.06-7.03-0.06-10.81C474.74,427.48,476,428.09,477.25,428.7z"/>
<path class="st8" d="M340.37,464.36c0.32,2.84,1.69,4.65,4.01,5.53c3.44,1.3,6.51,0.48,9.12-2.3c1.21,0.67,2.38,1.31,3.54,1.95
	c-2.22,5.05-9.14,7.18-14.76,4.63c-5.08-2.31-7.99-8.27-6.9-14.14c1.08-5.86,5.27-9.54,11.24-9.86c5.27-0.29,10.02,3.17,11.29,8.21
	c1.04,4.11-0.26,5.88-4.5,5.96c-3.54,0.07-7.09,0.02-10.64,0.02C342.05,464.36,341.31,464.36,340.37,464.36z M353.4,460.33
	c-0.79-3.7-3.26-5.61-6.91-5.43c-3.05,0.15-5.58,2.46-5.89,5.43C344.87,460.33,349.12,460.33,353.4,460.33z"/>
<path class="st9" d="M160.16,378.51c-0.4-1.71-0.79-3.41-1.28-5.52c1.41,0,2.29,0,3.17,0c14.54,0,29.09,0,43.63,0
	c6.01,0,12.03,0.08,17.74-2.28c-1.57,3.76-4.35,6.05-8.34,6.89c-0.35,0.07-0.66,0.3-1,0.46c-4.66,0.12-9.31,0.33-13.97,0.35
	C186.79,378.48,173.47,378.48,160.16,378.51z"/>
<path class="st5" d="M285.25,368.95c0.37,2.96,1.84,4.87,4.43,5.63c3.19,0.94,6.12,0.37,8.5-2.48c1.22,0.69,2.42,1.37,3.7,2.1
	c-2.24,4.05-5.87,5.52-10.05,5.42c-4.83-0.11-8.4-2.5-10.45-6.98c-2.4-5.26-1.11-11.67,3.03-15.02c4.21-3.41,10.32-3.5,14.64-0.13
	c2.68,2.09,3.85,4.96,3.75,8.31c-0.05,1.92-1.34,3.01-3.71,3.06c-3.84,0.09-7.69,0.06-11.54,0.08
	C286.83,368.96,286.09,368.95,285.25,368.95z M298.18,365.07c-0.82-3.67-3.63-5.87-6.8-5.55c-3.23,0.32-5.67,2.65-5.72,5.55
	C289.77,365.07,293.88,365.07,298.18,365.07z"/>
<path class="st8" d="M389.93,469.62c1.37-0.77,2.74-1.54,4.17-2.34c3.04,3.74,6.93,3.99,11.08,2.61c0.81-0.27,1.88-1.37,1.87-2.08
	c-0.01-0.71-1.09-1.77-1.92-2.04c-3.13-1.04-6.41-1.65-9.52-2.74c-3.56-1.26-4.94-4.4-3.92-8c0.54-1.91,1.77-3.17,3.58-3.76
	c4.54-1.46,9.05-1.45,13.36,0.77c1.08,0.55,1.91,1.57,3.09,2.56c-1.61,1.15-2.87,2.06-4.27,3.06c-2.19-2.84-5.22-3.22-8.35-2.62
	c-1.04,0.2-1.88,1.41-2.81,2.15c0.82,0.76,1.53,1.91,2.49,2.22c2.64,0.83,5.43,1.19,8.1,1.96c3.69,1.06,5.15,2.82,5.24,5.89
	c0.1,3.46-1.43,5.84-4.89,7c-5.27,1.77-10.38,1.47-15.1-1.76c-0.93-0.64-1.9-1.23-2.85-1.84
	C389.49,470.3,389.71,469.96,389.93,469.62z"/>
<path class="st10" d="M381.26,379.22c-1.84,0-3.4,0-5.07,0c0-7.75,0-15.41,0-23.2c2.78-1.8,3.13,1.19,4.43,2.42
	c4.07-3.53,8.58-4.5,13.56-2.14c3.18,1.51,5.09,4.05,5.2,7.57c0.16,5.03,0.04,10.08,0.04,15.27c-1.55,0-3.09,0-4.96,0
	c0-2.05,0-4.2,0-6.36c0-1.88-0.08-3.77,0.02-5.65c0.15-2.84-0.5-5.27-3.23-6.64c-2.87-1.44-5.67-0.75-8.07,0.99
	c-0.98,0.71-1.77,2.3-1.83,3.52C381.13,369.65,381.26,374.32,381.26,379.22z"/>
<path class="st11" d="M452.87,418.63c-0.86,3.1-1.65,6.23-2.61,9.3c-5.76,18.45-11.56,36.88-17.33,55.32
	c-2.92,9.33-5.81,18.66-8.71,28c-0.17,0.55-0.27,1.13-0.52,2.2c3.53,0,6.8,0,10.08,0c-1.7,5.39-1.7,5.39-7.31,5.39
	c-2.18,0-4.36,0-6.88,0c1.09-3.54,2.1-6.88,3.14-10.21c9.16-29.3,18.33-58.61,27.47-87.91
	C450.62,419.34,450.98,418.04,452.87,418.63z"/>
<path class="st12" d="M361.39,450.78c5.81-0.34,5.8-0.33,7.73,4.59c1.64,4.19,3.3,8.37,5.14,13.01c1.68-4.24,3.19-8.06,4.7-11.87
	c0.19-0.49,0.35-0.99,0.54-1.48c1.76-4.57,1.76-4.57,6.98-4.24c-1.2,3.12-2.36,6.17-3.55,9.21c-1.72,4.41-3.52,8.78-5.16,13.22
	c-0.48,1.29-1.11,1.8-2.45,1.65c-0.97-0.1-1.98,0.09-2.93-0.06c-0.55-0.09-1.31-0.49-1.5-0.94
	C367.71,466.26,364.6,458.62,361.39,450.78z"/>
<path class="st13" d="M204.97,415.6c0.16,0.75,0.45,1.51,0.45,2.26c0.02,34.08,0.02,68.16,0.02,102.24c0,0.89,0,1.78,0,2.79
	c0.62,0.06,1.05,0.15,1.48,0.15c19.09-0.04,38.18,0.11,57.27-0.22c11.85-0.2,23.24-2.86,33.72-8.7c0.56-0.31,1.22-0.45,1.84-0.68
	c-3.26,1.81-6.41,3.88-9.81,5.37c-9.04,3.95-18.66,5.62-28.44,5.75c-18.84,0.24-37.69,0.07-56.53,0.07
	c-0.13-0.13-0.25-0.25-0.38-0.38c-0.02-0.83-0.07-1.65-0.07-2.48c0-34.42,0-68.85,0-103.27c0-0.83,0.04-1.65,0.05-2.48
	C204.71,415.88,204.84,415.74,204.97,415.6z"/>
<path class="st14" d="M477.25,492.07c0,2.76,0,5.52,0,8.73c3.9-2.22,7.4-4.21,10.9-6.22c13.82-7.94,27.62-15.88,41.44-23.81
	c1.88-1.08,3.81-2.08,5.72-3.12c0.36,1.91-0.27,3.04-2.09,4.08c-19.38,11.03-38.7,22.19-58.04,33.3c-0.51,0.3-1.05,0.55-1.92,1
	c0-3.93-0.07-7.63,0.08-11.33c0.02-0.53,1.08-1.07,1.73-1.5C475.74,492.77,476.51,492.45,477.25,492.07z"/>
<path class="st15" d="M314.85,379.19c-1.44,0-2.92,0-4.6,0c0-7.68,0-15.4,0-23.28c0.8-0.18,1.66-0.37,2.74-0.61
	c0.47,1.29,0.9,2.5,1.21,3.35c2.27-1.09,4.34-2.58,6.62-3.07c5.05-1.09,6.29,0.36,5.23,5.47c-1.36-0.23-2.72-0.64-4.09-0.66
	c-4.11-0.04-6.81,2.67-6.85,6.76c-0.04,3.85-0.03,7.69-0.05,11.54C315.06,378.82,314.96,378.95,314.85,379.19z"/>
<path class="st16" d="M139.64,345.4c-0.2,0.7-0.33,1.43-0.61,2.1c-8.22,18.91-7.05,37.19,4.66,54.19
	c7.9,11.47,19.18,18.05,33.34,18.95c4.05,0.26,8.12,0.04,12.18,0.04c-11.76,2.25-25.52,0.85-36.79-7.57
	c-10.27-7.67-16.43-17.95-18.9-30.37c-2.45-12.34-1.23-24.33,4.81-35.6C138.67,346.51,139.2,345.98,139.64,345.4z"/>
<path class="st14" d="M71.34,362.21c-0.76-0.4-1.51-0.8-2.69-1.42c4.23-2.44,8.05-4.65,11.88-6.83
	c10.19-5.81,20.39-11.61,30.6-17.39c0.57-0.32,1.23-0.51,1.84-0.76c0.44,1.88-0.3,2.92-2.03,3.9
	C97.7,347.13,84.53,354.69,71.34,362.21z"/>
<path class="st4" d="M367.09,379.25c-1.82,0-3.4,0-5.12,0c0-7.85,0-15.65,0-23.62c1.63,0,3.31,0,5.12,0
	C367.09,363.47,367.09,371.27,367.09,379.25z"/>
<path class="st17" d="M160.16,378.51c13.32-0.03,26.64-0.02,39.96-0.1c4.66-0.02,9.31-0.23,13.97-0.35
	c-2.39,0.43-4.78,1.22-7.17,1.24c-15.44,0.11-30.89,0.05-46.33,0.05C160.43,379.07,160.29,378.79,160.16,378.51z"/>
<path class="st18" d="M361.5,349.5c0.03-1.64,1.45-3.06,3.05-3.06c1.67,0,3.14,1.58,3.05,3.27c-0.09,1.67-1.47,2.93-3.15,2.88
	C362.81,352.55,361.47,351.14,361.5,349.5z"/>
<path class="st13" d="M299.72,513.48c0.41-0.23,0.82-0.46,1.22-0.68C300.53,513.03,300.13,513.25,299.72,513.48z"/>
<path class="st1" d="M312.83,501.22c0.29-0.18,0.59-0.36,0.88-0.53C313.42,500.86,313.13,501.04,312.83,501.22z"/>
<path class="st1" d="M313.7,500.7c0.22-0.3,0.44-0.61,0.66-0.91C314.14,500.09,313.92,500.4,313.7,500.7z"/>
<path class="st19" d="M204.97,415.6c-0.13,0.14-0.26,0.28-0.39,0.42c-0.09-0.07-0.13-0.16-0.11-0.27
	C204.64,415.7,204.8,415.65,204.97,415.6z"/>
<path class="st1" d="M312.39,501.67c0.16-0.16,0.32-0.32,0.48-0.48C312.71,501.34,312.55,501.5,312.39,501.67z"/>
<path class="st1" d="M144.69,338.54c-0.16,0.17-0.32,0.35-0.48,0.52C144.37,338.89,144.53,338.71,144.69,338.54z"/>
<path class="st19" d="M204.59,524.25c0.13,0.13,0.25,0.25,0.38,0.38C204.85,524.51,204.72,524.38,204.59,524.25z"/>
<path class="st20" d="M295.66,483.97c0.6-1.51,1.21-3.03,1.81-4.54c0.44-0.6,1.07-1.13,1.28-1.79c3.13-9.94,3.23-20.03,0.68-30.05
	c-5.42-21.28-23.51-32.9-43.23-35.53c-7.44-0.99-15.05-0.69-22.58-0.98c-0.04-6.63-0.7-5.47,5.26-5.39
	c7.23,0.09,14.54-0.08,21.65,0.96c17.3,2.53,31.75,10.29,39.6,26.57c7.2,14.92,7.32,30.39-0.18,45.49
	C298.97,480.69,297.11,482.23,295.66,483.97z"/>
<path class="st1" d="M170.59,343.53c-2.29,1.22-4.59,2.44-6.88,3.66c1.58-1.93,2.9-4.18,4.79-5.74c10.11-8.34,25.94-7.31,34.9,2.23
	c3.41,3.64,5.35,8.08,6.13,13.35c-2.12,0-4.04,0-5.96,0c-0.07-0.56-0.01-1.18-0.24-1.67c-2.89-6.37-7.66-10.66-14.36-12.75
	C182.74,340.68,176.59,340.69,170.59,343.53z"/>
<path class="st21" d="M233.62,411.09c7.53,0.29,15.14-0.01,22.58,0.98c19.72,2.63,37.82,14.25,43.23,35.53
	c2.55,10.01,2.45,20.1-0.68,30.05c-0.21,0.67-0.84,1.2-1.28,1.79c2.26-6.48,2.63-13.16,2.26-19.96c-0.4-7.37-2.17-14.34-5.78-20.76
	c-7.22-12.84-18.59-20.2-32.6-23.47c-5.87-1.37-12.04-1.52-18.09-2.03c-3.07-0.26-6.18-0.08-9.28-0.1
	C233.86,412.45,233.74,411.77,233.62,411.09z"/>
<path class="st16" d="M170.59,343.53c6-2.84,12.15-2.86,18.38-0.91c6.7,2.09,11.46,6.38,14.36,12.75c0.22,0.49,0.16,1.11,0.24,1.67
	c-0.58-0.05-1.17-0.09-1.75-0.14c-5.07-11.63-17.68-16.84-29.91-13.52C171.48,343.49,171.02,343.48,170.59,343.53z"/>
<path class="st1" d="M163.71,347.19c-0.16,0.13-0.31,0.26-0.47,0.39C163.4,347.45,163.56,347.32,163.71,347.19z"/>
<g>
	<g>
		<path class="st0" d="M217.81,406.23c3.22,0,3.22-5,0-5C214.59,401.23,214.59,406.23,217.81,406.23L217.81,406.23z"/>
	</g>
</g>
</svg>
