<?xml version="1.0" encoding="utf-8"?>
<!-- Generator: Adobe Illustrator 26.5.0, SVG Export Plug-In . SVG Version: 6.00 Build 0)  -->
<svg version="1.1" id="Layer_1" xmlns="http://www.w3.org/2000/svg" xmlns:xlink="http://www.w3.org/1999/xlink" x="0px" y="0px"
	 viewBox="0 0 595.28 841.89" style="enable-background:new 0 0 595.28 841.89;" xml:space="preserve">
<style type="text/css">
	.st0{fill:#A24499;}
	.st1{fill:#56489E;}
	.st2{fill:#52469C;}
	.st3{fill:#755CA7;}
	.st4{fill:#7059A6;}
	.st5{fill:#55489D;}
	.st6{fill:#54489D;}
</style>
<path class="st0" d="M81.65,238.52c6.43-14.94,14.99-28.37,27.08-39.49c14.53-13.36,31.65-21.33,50.89-24.75
	c11.48-2.04,23.09-2.24,34.74-0.77c14.39,1.81,27.99,5.93,40.48,13.29c22.25,13.11,36.62,32.27,42.91,57.35
	c2.4,9.55,3.23,19.32,2.65,29.15c-0.29,4.99-1.72,9.77-4.49,14.05c-0.66,1.03-1.26,2.1-1.88,3.15c-0.18,0.2-0.36,0.39-0.54,0.59
	c0,0,0.03-0.03,0.03-0.03c-0.5,0.25-1.02,0.48-1.51,0.75c-3.32,1.82-6.5,4.01-9.99,5.41c-6.33,2.53-13.16,2.71-19.85,2.73
	c-39.1,0.13-78.21,0.07-117.31,0.07c-1.02,0-2.04,0-3.51,0c0.87,3.42,1.59,6.27,2.32,9.12c1.64,4.38,2.77,9.05,5.02,13.1
	c9.42,17,23.97,26.85,43.16,29.8c16.17,2.49,31.53,0.06,45.86-7.97c7.44-4.17,13.53-9.9,18.28-16.98c0.82-1.22,1.67-1.57,3.04-1.57
	c32.55,0.03,65.11-0.16,97.66,0.09c25.02,0.19,49.52,3.9,73.01,12.93c22.03,8.47,41.34,21.03,57.17,38.68
	c18.81,20.97,29.95,45.64,35.45,73.09c3.27,16.3,4.52,32.75,3.89,49.31c-0.84,21.81-5.95,42.57-16.61,61.8
	c-0.91,1.64-1.79,3.29-2.69,4.94c-0.34,0.54-0.67,1.08-1.01,1.62c0,0,0.01-0.04,0.01-0.04c-1.2,1.47-2.4,2.94-3.6,4.41
	c-5.23,5.66-10.13,11.67-15.76,16.9c-11.28,10.45-24.52,17.92-38.79,23.53c-21.89,8.61-44.81,12.2-68.16,12.42
	c-39.87,0.38-79.75,0.1-119.63,0.1c-0.89,0-1.78,0-2.98,0c0-1.37,0-2.42,0-3.48c0-66.11,0-132.23,0-198.34
	c0-10.08,0.03-20.15-0.03-30.23c-0.01-1.81,0.42-2.99,2.01-4.14c3.81-2.77,7.78-5.52,10.95-8.95c5.28-5.71,10.06-11.89,14.89-17.99
	c1.49-1.88,2.48-4.14,3.7-6.23c-0.22-0.18-0.43-0.36-0.65-0.55c-0.57,0.46-1.21,0.85-1.68,1.39c-4.5,5.09-8.7,10.48-13.52,15.24
	c-8.33,8.24-18.31,14.03-29.33,17.94c-10.06,3.57-20.47,5.41-31.13,6.14c-10.65,0.73-21.26,0.86-31.75-1.27
	c-22.44-4.57-41.38-15.36-56.74-32.42c-12.55-13.94-21.08-30.04-25.48-48.19c-1.85-7.61-2.61-15.49-3.6-23.29
	c-1.16-9.04-0.51-18.08,0.89-27.04c0.88-5.64,2.2-11.22,3.32-16.82c0.76-2.35,1.52-4.69,2.27-7.04c0,0-0.03,0.06-0.03,0.06
	C81.26,239.56,81.46,239.04,81.65,238.52z M127.64,248.56c-0.19,0.33-0.38,0.66-0.57,0.98c-2.4,4.3-3.97,8.85-4.55,14.03
	c1.18,0,2.16,0,3.14,0c21.54,0,43.09,0.01,64.63,0c13.23-0.01,26.45-0.04,39.68-0.06c2.23,0,4.45,0,7.02,0
	c-0.72-3.07-1.23-5.91-2.06-8.65c-3.12-10.23-8.46-19.04-16.73-25.99c-8.99-7.54-19.3-11.64-30.94-12.91
	c-9.87-1.08-19.38,0.21-28.56,3.66c-9.56,3.6-17.89,9.2-24.14,17.39c-2.72,3.56-4.66,7.72-6.96,11.6
	C127.61,248.61,127.64,248.56,127.64,248.56z M291.49,382.96c-0.03,0.83-0.1,1.66-0.1,2.49c0,63.44,0,126.88,0,190.32
	c0,0.8,0.08,1.61,0.13,2.6c1.16,0,2.14,0,3.12,0c20.73,0,41.45,0.05,62.18-0.02c12.77-0.04,25.3-1.83,37.53-5.55
	c12.31-3.74,23.52-9.45,32.9-18.47c5.86-5.64,10.75-11.93,13.99-19.44c0.45-0.68,0.97-1.33,1.32-2.06
	c6.07-12.37,8.42-25.64,9.17-39.22c0.61-11.06-0.2-22.07-2.43-32.94c-3.62-17.61-11.08-33.37-22.96-46.9
	c-13.79-15.71-31.07-26.15-50.73-32.76c-14.81-4.98-30.13-7.22-45.72-7.47c-11.9-0.19-23.81-0.05-35.71-0.05
	c-0.81,0-1.62,0.08-2.69,0.13C291.49,376.85,291.49,379.9,291.49,382.96z"/>
<path class="st1" d="M78.82,247.05c-1.12,5.6-2.44,11.18-3.32,16.82c-1.4,8.96-2.05,18-0.89,27.04c1,7.79,1.76,15.68,3.6,23.29
	c4.41,18.15,12.93,34.26,25.48,48.19c15.36,17.06,34.3,27.85,56.74,32.42c10.49,2.14,21.1,2.01,31.75,1.27
	c10.66-0.73,21.06-2.58,31.13-6.14c11.03-3.91,21.01-9.7,29.33-17.94c4.82-4.77,9.02-10.16,13.52-15.24
	c0.48-0.54,1.12-0.93,1.68-1.39c0.22,0.18,0.43,0.36,0.65,0.55c-1.22,2.09-2.21,4.35-3.7,6.23c-4.84,6.1-9.61,12.28-14.89,17.99
	c-3.17,3.43-7.13,6.18-10.95,8.95c-1.59,1.16-2.02,2.34-2.01,4.14c0.06,10.07,0.03,20.15,0.03,30.23c0,66.11,0,132.23,0,198.34
	c0,1.06,0,2.11,0,3.48c1.2,0,2.09,0,2.98,0c39.88,0,79.76,0.27,119.63-0.1c23.35-0.22,46.27-3.81,68.16-12.42
	c14.26-5.61,27.51-13.07,38.79-23.53c5.63-5.22,10.53-11.24,15.76-16.9c0.17,0.37,0.34,0.73,0.51,1.1
	c-0.38,0.46-0.76,0.93-1.14,1.39c-0.13,0.16-0.27,0.32-0.4,0.48c-7.64,13.73-18.89,24.01-31.64,32.79
	c-9.86,6.8-20.47,12.16-31.92,15.72c-7.71,2.4-15.43,4.93-23.31,6.61c-7.43,1.58-15.08,2.21-22.65,3.1
	c-3.71,0.44-7.45,0.74-11.18,0.75c-41.62,0.05-83.24,0.03-124.86,0.03c-3.53,0-3.53,0-3.53-3.46c0-77.85,0-155.69,0-233.54
	c0-1.13,0-2.27,0-4.04c-2.25,1.06-3.92,2.02-5.71,2.66c-5.8,2.09-11.54,4.4-17.47,6.02c-13.81,3.78-27.92,4.88-42.19,3.84
	c-9.97-0.72-19.78-2.7-28.93-6.57c-24.28-10.28-42.61-27.15-54.82-50.68c-4.48-8.63-7.94-17.6-10.1-26.98
	c-3.19-13.89-4.8-27.99-2.8-42.27c0.8-5.73,1.38-11.53,2.71-17.14c1.23-5.19,3.33-10.17,5.04-15.24
	C78.21,246.96,78.52,247,78.82,247.05z"/>
<path class="st2" d="M123.66,309.12c-0.73-2.85-1.45-5.71-2.32-9.12c1.47,0,2.49,0,3.51,0c39.1,0,78.21,0.07,117.31-0.07
	c6.68-0.02,13.52-0.2,19.85-2.73c3.49-1.4,6.67-3.58,9.99-5.41c0.49-0.27,1.01-0.5,1.51-0.75c-1.64,7.42-6.95,11.51-13.37,14.45
	c-6.45,2.96-13.36,3.61-20.38,3.61c-37.7-0.02-75.4-0.01-113.11-0.01C125.66,309.1,124.66,309.12,123.66,309.12z"/>
<path class="st3" d="M78.82,247.05c-0.31-0.05-0.61-0.09-0.92-0.14c1.06-2.3,2.13-4.6,3.19-6.9
	C80.34,242.36,79.58,244.7,78.82,247.05z"/>
<path class="st4" d="M482.81,573.42c-0.17-0.37-0.34-0.73-0.51-1.1c1.2-1.47,2.4-2.94,3.6-4.41
	C484.87,569.75,483.84,571.59,482.81,573.42z"/>
<path class="st4" d="M485.89,567.96c0.34-0.54,0.67-1.08,1.01-1.62C486.57,566.88,486.23,567.42,485.89,567.96z"/>
<path class="st3" d="M81.65,238.52c-0.19,0.52-0.39,1.03-0.58,1.55C81.26,239.56,81.46,239.04,81.65,238.52z"/>
<path class="st2" d="M273.48,291.08c0.18-0.2,0.36-0.39,0.54-0.59C273.84,290.69,273.66,290.89,273.48,291.08z"/>
<path class="st4" d="M481.26,575.3c0.13-0.16,0.27-0.32,0.4-0.48C481.53,574.97,481.4,575.14,481.26,575.3z"/>
<path class="st5" d="M441.24,534.9c0.79-3.02,1.71-6.02,2.33-9.08c0.92-4.52,2-9.06,2.34-13.64c0.6-8.19,1.23-16.43,0.86-24.61
	c-0.31-6.97-1.72-13.94-3.19-20.79c-1.16-5.44-2.87-10.8-4.85-16.01c-1.62-4.25-3.8-8.34-6.09-12.29
	c-10.37-17.89-24.95-31.32-43.58-40.23c-6.94-3.32-14.07-6.3-21.28-8.98c-3.91-1.45-8.19-1.85-12.28-2.84
	c-21.13-5.14-42.64-3.07-64.02-3.49c0-3.05,0-6.11,0-9.32c1.07-0.05,1.88-0.13,2.69-0.13c11.9,0,23.81-0.14,35.71,0.05
	c15.59,0.25,30.91,2.49,45.72,7.47c19.66,6.61,36.94,17.05,50.73,32.76c11.88,13.53,19.34,29.29,22.96,46.9
	c2.24,10.87,3.05,21.88,2.43,32.94c-0.75,13.58-3.1,26.86-9.17,39.22C442.21,533.57,441.68,534.21,441.24,534.9z"/>
<path class="st6" d="M229.98,263.51c-3.31-10.71-9.18-19.72-17.99-26.72c-9.71-7.71-20.94-11.33-33.19-11.79
	c-15.6-0.58-29.71,3.74-41.72,13.89c-3.44,2.9-6.33,6.46-9.47,9.72c2.3-3.89,4.24-8.04,6.96-11.6c6.24-8.19,14.57-13.79,24.14-17.39
	c9.18-3.45,18.69-4.74,28.56-3.66c11.64,1.27,21.96,5.37,30.94,12.91c8.28,6.95,13.62,15.76,16.73,25.99
	c0.84,2.74,1.34,5.59,2.06,8.65C234.43,263.51,232.21,263.51,229.98,263.51z"/>
<path class="st6" d="M127.64,248.56c-0.19,0.33-0.38,0.66-0.57,0.98C127.26,249.22,127.45,248.89,127.64,248.56z"/>
</svg>
